
<svg xmlns="http://www.w3.org/2000/svg" width="1920" height="1080"><path d="M126,1289L-273,1295L488,1326Z" fill="#c07161" stroke="#c07161" stroke-width="1.51"/><path d="M661,1300L488,1326L834,1289Z" fill="#ba4f3d" stroke="#ba4f3d" stroke-width="1.51"/><path d="M328,-232L679,-194L1013,-232Z" fill="#ffbea8" stroke="#ffbea8" stroke-width="1.51"/><path d="M834,1289L488,1326L1209,1282Z" fill="#bb4333" stroke="#bb4333" stroke-width="1.51"/><path d="M328,-232L1013,-232L1419,-239Z" fill="#ffb199" stroke="#ffb199" stroke-width="1.51"/><path d="M1209,1282L488,1326L1451,1289Z" fill="#b83528" stroke="#b83528" stroke-width="1.51"/><path d="M1593,1278L1451,1289L1810,1292Z" fill="#a40e17" stroke="#a40e17" stroke-width="1.51"/><path d="M1419,-239L1578,-219L1937,-238Z" fill="#ee8f7c" stroke="#ee8f7c" stroke-width="1.51"/><path d="M1810,1292L1451,1289L2142,1326Z" fill="#970a14" stroke="#970a14" stroke-width="1.51"/><path d="M1451,1289L488,1326L2142,1326Z" fill="#ad1c1c" stroke="#ad1c1c" stroke-width="1.51"/><path d="M1955,1266L1810,1292L2142,1326Z" fill="#8e0813" stroke="#8e0813" stroke-width="1.51"/><path d="M1936,920L1966,1110L2159,875Z" fill="#ae1018" stroke="#ae1018" stroke-width="1.51"/><path d="M1955,1266L2142,1326L2175,1119Z" fill="#8a0713" stroke="#8a0713" stroke-width="1.51"/><path d="M2159,875L1966,1110L2175,1119Z" fill="#a00d15" stroke="#a00d15" stroke-width="1.51"/><path d="M1953,202L1953,368L2176,381Z" fill="#c85641" stroke="#c85641" stroke-width="1.51"/><path d="M1953,202L2176,381L2180,131Z" fill="#c15c48" stroke="#c15c48" stroke-width="1.51"/><path d="M2003,4L2180,131L2194,-37Z" fill="#c26f5d" stroke="#c26f5d" stroke-width="1.51"/><path d="M2176,381L1989,508L2197,522Z" fill="#bd4432" stroke="#bd4432" stroke-width="1.51"/><path d="M1989,508L2022,768L2197,522Z" fill="#c03728" stroke="#c03728" stroke-width="1.51"/><path d="M2194,-37L2180,131L2197,522Z" fill="#b85c4a" stroke="#b85c4a" stroke-width="1.51"/><path d="M2180,131L2176,381L2197,522Z" fill="#b74e3c" stroke="#b74e3c" stroke-width="1.51"/><path d="M2197,522L2022,768L2206,733Z" fill="#b62c23" stroke="#b62c23" stroke-width="1.51"/><path d="M2022,768L2159,875L2206,733Z" fill="#b11e1d" stroke="#b11e1d" stroke-width="1.51"/><path d="M2159,875L2175,1119L2206,733Z" fill="#a31118" stroke="#a31118" stroke-width="1.51"/><path d="M2194,-37L2197,522L2206,733Z" fill="#b54837" stroke="#b54837" stroke-width="1.51"/><path d="M1966,1110L1955,1266L2175,1119Z" fill="#9b0c14" stroke="#9b0c14" stroke-width="1.51"/><path d="M2176,-163L2003,4L2194,-37Z" fill="#c47768" stroke="#c47768" stroke-width="1.51"/><path d="M1953,368L1989,508L2176,381Z" fill="#c64c38" stroke="#c64c38" stroke-width="1.51"/><path d="M2003,4L1953,202L2180,131Z" fill="#c96b57" stroke="#c96b57" stroke-width="1.51"/><path d="M1937,-238L2003,4L2176,-163Z" fill="#ce7f6f" stroke="#ce7f6f" stroke-width="1.51"/><path d="M2022,768L1936,920L2159,875Z" fill="#b61b1b" stroke="#b61b1b" stroke-width="1.51"/><path d="M1937,-238L1826,-166L2003,4Z" fill="#db8471" stroke="#db8471" stroke-width="1.51"/><path d="M1825,175L1953,202L2003,4Z" fill="#d46e57" stroke="#d46e57" stroke-width="1.51"/><path d="M1826,753L1936,920L2022,768Z" fill="#c4211e" stroke="#c4211e" stroke-width="1.51"/><path d="M1989,508L1824,585L2022,768Z" fill="#cc3829" stroke="#cc3829" stroke-width="1.51"/><path d="M1824,585L1826,753L2022,768Z" fill="#ce2e24" stroke="#ce2e24" stroke-width="1.51"/><path d="M1826,-166L1766,31L2003,4Z" fill="#dd7f6a" stroke="#dd7f6a" stroke-width="1.51"/><path d="M1766,31L1825,175L2003,4Z" fill="#da755e" stroke="#da755e" stroke-width="1.51"/><path d="M1578,-219L1826,-166L1937,-238Z" fill="#e58a78" stroke="#e58a78" stroke-width="1.51"/><path d="M1936,920L1800,946L1966,1110Z" fill="#b61319" stroke="#b61319" stroke-width="1.51"/><path d="M1800,946L1809,1116L1966,1110Z" fill="#b21318" stroke="#b21318" stroke-width="1.51"/><path d="M1809,1116L1955,1266L1966,1110Z" fill="#a61016" stroke="#a61016" stroke-width="1.51"/><path d="M1953,368L1774,381L1989,508Z" fill="#d2503a" stroke="#d2503a" stroke-width="1.51"/><path d="M1774,381L1824,585L1989,508Z" fill="#d54934" stroke="#d54934" stroke-width="1.51"/><path d="M1825,175L1774,381L1953,368Z" fill="#d75c45" stroke="#d75c45" stroke-width="1.51"/><path d="M1825,175L1953,368L1953,202Z" fill="#d4624b" stroke="#d4624b" stroke-width="1.51"/><path d="M1809,1116L1810,1292L1955,1266Z" fill="#9f0d15" stroke="#9f0d15" stroke-width="1.51"/><path d="M1826,753L1800,946L1936,920Z" fill="#c31d1d" stroke="#c31d1d" stroke-width="1.51"/><path d="M1620,747L1620,930L1800,946Z" fill="#cd1f1f" stroke="#cd1f1f" stroke-width="1.51"/><path d="M1800,946L1613,1073L1809,1116Z" fill="#bb141a" stroke="#bb141a" stroke-width="1.51"/><path d="M1613,1073L1593,1278L1809,1116Z" fill="#b51218" stroke="#b51218" stroke-width="1.51"/><path d="M1809,1116L1593,1278L1810,1292Z" fill="#a60f16" stroke="#a60f16" stroke-width="1.51"/><path d="M1774,381L1623,569L1824,585Z" fill="#db4834" stroke="#db4834" stroke-width="1.51"/><path d="M1623,569L1620,747L1824,585Z" fill="#db3b2b" stroke="#db3b2b" stroke-width="1.51"/><path d="M1605,215L1774,381L1825,175Z" fill="#df644c" stroke="#df644c" stroke-width="1.51"/><path d="M1766,31L1605,215L1825,175Z" fill="#e07159" stroke="#e07159" stroke-width="1.51"/><path d="M1824,585L1620,747L1826,753Z" fill="#d53126" stroke="#d53126" stroke-width="1.51"/><path d="M1620,747L1800,946L1826,753Z" fill="#ce2420" stroke="#ce2420" stroke-width="1.51"/><path d="M1599,10L1766,31L1826,-166Z" fill="#e5816c" stroke="#e5816c" stroke-width="1.51"/><path d="M1578,-219L1599,10L1826,-166Z" fill="#eb8974" stroke="#eb8974" stroke-width="1.51"/><path d="M1601,390L1623,569L1774,381Z" fill="#e1513b" stroke="#e1513b" stroke-width="1.51"/><path d="M1620,930L1613,1073L1800,946Z" fill="#c4171b" stroke="#c4171b" stroke-width="1.51"/><path d="M1605,215L1601,390L1774,381Z" fill="#e25e46" stroke="#e25e46" stroke-width="1.51"/><path d="M1599,10L1605,215L1766,31Z" fill="#e67860" stroke="#e67860" stroke-width="1.51"/><path d="M1379,1140L1451,1289L1593,1278Z" fill="#b4191b" stroke="#b4191b" stroke-width="1.51"/><path d="M1578,-219L1451,-58L1599,10Z" fill="#f18b75" stroke="#f18b75" stroke-width="1.51"/><path d="M1599,10L1391,141L1605,215Z" fill="#ec785e" stroke="#ec785e" stroke-width="1.51"/><path d="M1468,376L1601,390L1605,215Z" fill="#e86148" stroke="#e86148" stroke-width="1.51"/><path d="M1379,1140L1593,1278L1613,1073Z" fill="#bc191b" stroke="#bc191b" stroke-width="1.51"/><path d="M1469,901L1613,1073L1620,930Z" fill="#cc1a1e" stroke="#cc1a1e" stroke-width="1.51"/><path d="M1469,901L1620,930L1620,747Z" fill="#d52421" stroke="#d52421" stroke-width="1.51"/><path d="M1450,721L1469,901L1620,747Z" fill="#de2d25" stroke="#de2d25" stroke-width="1.51"/><path d="M1601,390L1468,376L1623,569Z" fill="#e7543d" stroke="#e7543d" stroke-width="1.51"/><path d="M1468,376L1397,544L1623,569Z" fill="#ea513a" stroke="#ea513a" stroke-width="1.51"/><path d="M1450,721L1620,747L1623,569Z" fill="#e1382a" stroke="#e1382a" stroke-width="1.51"/><path d="M1397,544L1450,721L1623,569Z" fill="#e84431" stroke="#e84431" stroke-width="1.51"/><path d="M1469,901L1379,1140L1613,1073Z" fill="#ca1e1e" stroke="#ca1e1e" stroke-width="1.51"/><path d="M1013,-232L1244,-182L1419,-239Z" fill="#ff9f88" stroke="#ff9f88" stroke-width="1.51"/><path d="M1451,-58L1391,141L1599,10Z" fill="#f2826a" stroke="#f2826a" stroke-width="1.51"/><path d="M1391,141L1468,376L1605,215Z" fill="#ed6d53" stroke="#ed6d53" stroke-width="1.51"/><path d="M1419,-239L1451,-58L1578,-219Z" fill="#f6927d" stroke="#f6927d" stroke-width="1.51"/><path d="M1235,879L1225,1092L1379,1140Z" fill="#d52a23" stroke="#d52a23" stroke-width="1.51"/><path d="M1264,161L1243,381L1391,141Z" fill="#f87659" stroke="#f87659" stroke-width="1.51"/><path d="M1274,-13L1391,141L1451,-58Z" fill="#f8886d" stroke="#f8886d" stroke-width="1.51"/><path d="M1419,-239L1244,-182L1451,-58Z" fill="#fc967f" stroke="#fc967f" stroke-width="1.51"/><path d="M1243,381L1397,544L1468,376Z" fill="#f15d43" stroke="#f15d43" stroke-width="1.51"/><path d="M1391,141L1243,381L1468,376Z" fill="#f36c50" stroke="#f36c50" stroke-width="1.51"/><path d="M1235,879L1379,1140L1469,901Z" fill="#d72722" stroke="#d72722" stroke-width="1.51"/><path d="M1450,721L1243,759L1469,901Z" fill="#e53328" stroke="#e53328" stroke-width="1.51"/><path d="M1243,759L1235,879L1469,901Z" fill="#e43227" stroke="#e43227" stroke-width="1.51"/><path d="M1012,1242L834,1289L1209,1282Z" fill="#be392a" stroke="#be392a" stroke-width="1.51"/><path d="M1397,544L1243,759L1450,721Z" fill="#ed412f" stroke="#ed412f" stroke-width="1.51"/><path d="M1244,-182L1274,-13L1451,-58Z" fill="#fe947b" stroke="#fe947b" stroke-width="1.51"/><path d="M1379,1140L1209,1282L1451,1289Z" fill="#bb201e" stroke="#bb201e" stroke-width="1.51"/><path d="M1234,525L1243,759L1397,544Z" fill="#f34c36" stroke="#f34c36" stroke-width="1.51"/><path d="M1243,381L1234,525L1397,544Z" fill="#f65a40" stroke="#f65a40" stroke-width="1.51"/><path d="M1274,-13L1264,161L1391,141Z" fill="#fa8367" stroke="#fa8367" stroke-width="1.51"/><path d="M1225,1092L1209,1282L1379,1140Z" fill="#c92721" stroke="#c92721" stroke-width="1.51"/><path d="M1092,898L1073,1069L1225,1092Z" fill="#da382a" stroke="#da382a" stroke-width="1.51"/><path d="M1092,898L1225,1092L1235,879Z" fill="#df3529" stroke="#df3529" stroke-width="1.51"/><path d="M1234,525L1094,685L1243,759Z" fill="#f44e37" stroke="#f44e37" stroke-width="1.51"/><path d="M1088,372L1243,381L1264,161Z" fill="#f97356" stroke="#f97356" stroke-width="1.51"/><path d="M1076,154L1088,372L1264,161Z" fill="#fb7e60" stroke="#fb7e60" stroke-width="1.51"/><path d="M1244,-182L1073,-61L1274,-13Z" fill="#ff9a80" stroke="#ff9a80" stroke-width="1.51"/><path d="M1076,154L1264,161L1274,-13Z" fill="#fc886b" stroke="#fc886b" stroke-width="1.51"/><path d="M1073,-61L1076,154L1274,-13Z" fill="#ff9377" stroke="#ff9377" stroke-width="1.51"/><path d="M1088,372L1234,525L1243,381Z" fill="#f8684a" stroke="#f8684a" stroke-width="1.51"/><path d="M1073,1069L1012,1242L1209,1282Z" fill="#c83628" stroke="#c83628" stroke-width="1.51"/><path d="M1073,1069L1209,1282L1225,1092Z" fill="#cd3226" stroke="#cd3226" stroke-width="1.51"/><path d="M1088,372L1029,506L1234,525Z" fill="#f96849" stroke="#f96849" stroke-width="1.51"/><path d="M1092,898L1235,879L1243,759Z" fill="#e93c2d" stroke="#e93c2d" stroke-width="1.51"/><path d="M1094,685L1092,898L1243,759Z" fill="#ef4431" stroke="#ef4431" stroke-width="1.51"/><path d="M1013,-232L1073,-61L1244,-182Z" fill="#ffa28a" stroke="#ffa28a" stroke-width="1.51"/><path d="M1029,506L1094,685L1234,525Z" fill="#f75d40" stroke="#f75d40" stroke-width="1.51"/><path d="M679,-194L910,-170L1013,-232Z" fill="#ffb299" stroke="#ffb299" stroke-width="1.51"/><path d="M830,-51L866,173L1073,-61Z" fill="#ffa083" stroke="#ffa083" stroke-width="1.51"/><path d="M1013,-232L910,-170L1073,-61Z" fill="#ffa88f" stroke="#ffa88f" stroke-width="1.51"/><path d="M849,936L856,1067L1073,1069Z" fill="#dd4833" stroke="#dd4833" stroke-width="1.51"/><path d="M866,173L862,316L1076,154Z" fill="#fd8c6c" stroke="#fd8c6c" stroke-width="1.51"/><path d="M1073,-61L866,173L1076,154Z" fill="#fe9576" stroke="#fe9576" stroke-width="1.51"/><path d="M1076,154L862,316L1088,372Z" fill="#fc8161" stroke="#fc8161" stroke-width="1.51"/><path d="M849,936L1073,1069L1092,898Z" fill="#e14331" stroke="#e14331" stroke-width="1.51"/><path d="M889,743L849,936L1092,898Z" fill="#ec4f38" stroke="#ec4f38" stroke-width="1.51"/><path d="M889,743L1092,898L1094,685Z" fill="#f24e37" stroke="#f24e37" stroke-width="1.51"/><path d="M1029,506L889,743L1094,685Z" fill="#f85c40" stroke="#f85c40" stroke-width="1.51"/><path d="M862,316L1029,506L1088,372Z" fill="#fb7656" stroke="#fb7656" stroke-width="1.51"/><path d="M844,516L889,743L1029,506Z" fill="#fa6849" stroke="#fa6849" stroke-width="1.51"/><path d="M856,1067L1012,1242L1073,1069Z" fill="#d3412e" stroke="#d3412e" stroke-width="1.51"/><path d="M910,-170L830,-51L1073,-61Z" fill="#ffa98e" stroke="#ffa98e" stroke-width="1.51"/><path d="M328,-232L450,-188L679,-194Z" fill="#ffc9b5" stroke="#ffc9b5" stroke-width="1.51"/><path d="M862,316L844,516L1029,506Z" fill="#fc7756" stroke="#fc7756" stroke-width="1.51"/><path d="M856,1067L834,1289L1012,1242Z" fill="#cb4531" stroke="#cb4531" stroke-width="1.51"/><path d="M844,516L681,530L889,743Z" fill="#fa6f4f" stroke="#fa6f4f" stroke-width="1.51"/><path d="M681,530L669,757L889,743Z" fill="#f86b4d" stroke="#f86b4d" stroke-width="1.51"/><path d="M666,874L849,936L889,743Z" fill="#ed5940" stroke="#ed5940" stroke-width="1.51"/><path d="M669,757L666,874L889,743Z" fill="#f36247" stroke="#f36247" stroke-width="1.51"/><path d="M679,-194L830,-51L910,-170Z" fill="#ffb29a" stroke="#ffb29a" stroke-width="1.51"/><path d="M637,337L681,530L844,516Z" fill="#fc8160" stroke="#fc8160" stroke-width="1.51"/><path d="M640,1110L834,1289L856,1067Z" fill="#d24f3a" stroke="#d24f3a" stroke-width="1.51"/><path d="M637,337L844,516L862,316Z" fill="#fc8463" stroke="#fc8463" stroke-width="1.51"/><path d="M830,-51L713,-49L866,173Z" fill="#ffa68a" stroke="#ffa68a" stroke-width="1.51"/><path d="M713,-49L637,147L866,173Z" fill="#fea487" stroke="#fea487" stroke-width="1.51"/><path d="M679,-194L713,-49L830,-51Z" fill="#ffb49b" stroke="#ffb49b" stroke-width="1.51"/><path d="M640,1110L661,1300L834,1289Z" fill="#c6503c" stroke="#c6503c" stroke-width="1.51"/><path d="M849,936L640,1110L856,1067Z" fill="#dd523c" stroke="#dd523c" stroke-width="1.51"/><path d="M637,147L637,337L862,316Z" fill="#fd9475" stroke="#fd9475" stroke-width="1.51"/><path d="M637,147L862,316L866,173Z" fill="#fd9576" stroke="#fd9576" stroke-width="1.51"/><path d="M666,874L640,1110L849,936Z" fill="#e35841" stroke="#e35841" stroke-width="1.51"/><path d="M-258,-212L-38,-160L328,-232Z" fill="#ffe4d9" stroke="#ffe4d9" stroke-width="1.51"/><path d="M478,948L640,1110L666,874Z" fill="#e46148" stroke="#e46148" stroke-width="1.51"/><path d="M534,763L669,757L681,530Z" fill="#f97254" stroke="#f97254" stroke-width="1.51"/><path d="M467,583L534,763L681,530Z" fill="#fb7c5d" stroke="#fb7c5d" stroke-width="1.51"/><path d="M679,-194L515,-55L713,-49Z" fill="#ffbaa2" stroke="#ffbaa2" stroke-width="1.51"/><path d="M515,-55L637,147L713,-49Z" fill="#ffb197" stroke="#ffb197" stroke-width="1.51"/><path d="M637,147L522,209L637,337Z" fill="#fd9f80" stroke="#fd9f80" stroke-width="1.51"/><path d="M478,948L510,1107L640,1110Z" fill="#dd624a" stroke="#dd624a" stroke-width="1.51"/><path d="M640,1110L510,1107L661,1300Z" fill="#d15a44" stroke="#d15a44" stroke-width="1.51"/><path d="M510,1107L488,1326L661,1300Z" fill="#c65a45" stroke="#c65a45" stroke-width="1.51"/><path d="M534,763L666,874L669,757Z" fill="#f3694d" stroke="#f3694d" stroke-width="1.51"/><path d="M450,-188L515,-55L679,-194Z" fill="#ffc2ac" stroke="#ffc2ac" stroke-width="1.51"/><path d="M637,337L474,351L681,530Z" fill="#fc8e6e" stroke="#fc8e6e" stroke-width="1.51"/><path d="M474,351L467,583L681,530Z" fill="#fd8a6a" stroke="#fd8a6a" stroke-width="1.51"/><path d="M534,763L478,948L666,874Z" fill="#ee6a4f" stroke="#ee6a4f" stroke-width="1.51"/><path d="M515,-55L522,209L637,147Z" fill="#feae91" stroke="#feae91" stroke-width="1.51"/><path d="M522,209L474,351L637,337Z" fill="#fd9c7c" stroke="#fd9c7c" stroke-width="1.51"/><path d="M-38,-160L145,-160L328,-232Z" fill="#ffdccd" stroke="#ffdccd" stroke-width="1.51"/><path d="M277,516L467,583L474,351Z" fill="#fe9374" stroke="#fe9374" stroke-width="1.51"/><path d="M339,1253L126,1289L488,1326Z" fill="#c06653" stroke="#c06653" stroke-width="1.51"/><path d="M339,1253L488,1326L510,1107Z" fill="#c9614c" stroke="#c9614c" stroke-width="1.51"/><path d="M267,-20L288,155L515,-55Z" fill="#fdc1a9" stroke="#fdc1a9" stroke-width="1.51"/><path d="M515,-55L288,155L522,209Z" fill="#fdb59a" stroke="#fdb59a" stroke-width="1.51"/><path d="M467,583L288,748L534,763Z" fill="#fa7e61" stroke="#fa7e61" stroke-width="1.51"/><path d="M282,886L478,948L534,763Z" fill="#f07258" stroke="#f07258" stroke-width="1.51"/><path d="M288,748L282,886L534,763Z" fill="#f57b5f" stroke="#f57b5f" stroke-width="1.51"/><path d="M478,948L307,1078L510,1107Z" fill="#df6a52" stroke="#df6a52" stroke-width="1.51"/><path d="M290,333L474,351L522,209Z" fill="#fda385" stroke="#fda385" stroke-width="1.51"/><path d="M288,155L290,333L522,209Z" fill="#fdad90" stroke="#fdad90" stroke-width="1.51"/><path d="M307,1078L339,1253L510,1107Z" fill="#d66a53" stroke="#d66a53" stroke-width="1.51"/><path d="M450,-188L267,-20L515,-55Z" fill="#ffc8b2" stroke="#ffc8b2" stroke-width="1.51"/><path d="M290,333L277,516L474,351Z" fill="#fd9e80" stroke="#fd9e80" stroke-width="1.51"/><path d="M282,886L307,1078L478,948Z" fill="#e67259" stroke="#e67259" stroke-width="1.51"/><path d="M328,-232L267,-20L450,-188Z" fill="#fecebb" stroke="#fecebb" stroke-width="1.51"/><path d="M277,516L288,748L467,583Z" fill="#fd8c6d" stroke="#fd8c6d" stroke-width="1.51"/><path d="M-23,1249L-273,1295L126,1289Z" fill="#c77b6c" stroke="#c77b6c" stroke-width="1.51"/><path d="M277,516L120,577L288,748Z" fill="#fe9375" stroke="#fe9375" stroke-width="1.51"/><path d="M120,577L125,724L288,748Z" fill="#fe9073" stroke="#fe9073" stroke-width="1.51"/><path d="M169,357L277,516L290,333Z" fill="#fea587" stroke="#fea587" stroke-width="1.51"/><path d="M288,155L166,188L290,333Z" fill="#fdb59a" stroke="#fdb59a" stroke-width="1.51"/><path d="M282,886L148,918L307,1078Z" fill="#e97961" stroke="#e97961" stroke-width="1.51"/><path d="M93,1097L126,1289L307,1078Z" fill="#d87761" stroke="#d87761" stroke-width="1.51"/><path d="M145,-160L267,-20L328,-232Z" fill="#fed4c2" stroke="#fed4c2" stroke-width="1.51"/><path d="M307,1078L126,1289L339,1253Z" fill="#ce6f5a" stroke="#ce6f5a" stroke-width="1.51"/><path d="M125,724L148,918L282,886Z" fill="#f4846a" stroke="#f4846a" stroke-width="1.51"/><path d="M125,724L282,886L288,748Z" fill="#f88469" stroke="#f88469" stroke-width="1.51"/><path d="M267,-20L125,-7L288,155Z" fill="#fdc7b1" stroke="#fdc7b1" stroke-width="1.51"/><path d="M125,-7L166,188L288,155Z" fill="#fdc3ab" stroke="#fdc3ab" stroke-width="1.51"/><path d="M166,188L169,357L290,333Z" fill="#fdb196" stroke="#fdb196" stroke-width="1.51"/><path d="M148,918L93,1097L307,1078Z" fill="#e37a63" stroke="#e37a63" stroke-width="1.51"/><path d="M145,-160L125,-7L267,-20Z" fill="#fed3c1" stroke="#fed3c1" stroke-width="1.51"/><path d="M169,357L120,577L277,516Z" fill="#ffa084" stroke="#ffa084" stroke-width="1.51"/><path d="M93,1097L-23,1249L126,1289Z" fill="#d07967" stroke="#d07967" stroke-width="1.51"/><path d="M125,724L-65,873L148,918Z" fill="#f68b72" stroke="#f68b72" stroke-width="1.51"/><path d="M125,-7L-28,211L166,188Z" fill="#fdc7b1" stroke="#fdc7b1" stroke-width="1.51"/><path d="M-33,390L120,577L169,357Z" fill="#ffaa8f" stroke="#ffaa8f" stroke-width="1.51"/><path d="M166,188L-28,211L169,357Z" fill="#ffbba2" stroke="#ffbba2" stroke-width="1.51"/><path d="M-28,211L-33,390L169,357Z" fill="#ffb89f" stroke="#ffb89f" stroke-width="1.51"/><path d="M-38,-160L125,-7L145,-160Z" fill="#fedccd" stroke="#fedccd" stroke-width="1.51"/><path d="M-65,873L-93,1057L93,1097Z" fill="#e98772" stroke="#e98772" stroke-width="1.51"/><path d="M-33,390L-40,586L120,577Z" fill="#ffa88c" stroke="#ffa88c" stroke-width="1.51"/><path d="M120,577L-40,586L125,724Z" fill="#ff9b80" stroke="#ff9b80" stroke-width="1.51"/><path d="M-65,-11L-28,211L125,-7Z" fill="#fed1bf" stroke="#fed1bf" stroke-width="1.51"/><path d="M-65,873L93,1097L148,918Z" fill="#ec846e" stroke="#ec846e" stroke-width="1.51"/><path d="M-40,586L-99,770L125,724Z" fill="#ff9980" stroke="#ff9980" stroke-width="1.51"/><path d="M-99,770L-65,873L125,724Z" fill="#fc937a" stroke="#fc937a" stroke-width="1.51"/><path d="M-38,-160L-65,-11L125,-7Z" fill="#feddcd" stroke="#feddcd" stroke-width="1.51"/><path d="M-93,1057L-23,1249L93,1097Z" fill="#dc826e" stroke="#dc826e" stroke-width="1.51"/><path d="M-246,19L-254,144L-65,-11Z" fill="#ffd9ca" stroke="#ffd9ca" stroke-width="1.51"/><path d="M-203,709L-99,770L-40,586Z" fill="#ff9e85" stroke="#ff9e85" stroke-width="1.51"/><path d="M-222,388L-268,583L-40,586Z" fill="#ffae95" stroke="#ffae95" stroke-width="1.51"/><path d="M-222,388L-40,586L-33,390Z" fill="#ffb298" stroke="#ffb298" stroke-width="1.51"/><path d="M-65,-11L-254,144L-28,211Z" fill="#fed2bf" stroke="#fed2bf" stroke-width="1.51"/><path d="M-222,388L-33,390L-28,211Z" fill="#ffbca5" stroke="#ffbca5" stroke-width="1.51"/><path d="M-254,144L-222,388L-28,211Z" fill="#ffc7b2" stroke="#ffc7b2" stroke-width="1.51"/><path d="M-93,1057L-206,1130L-23,1249Z" fill="#dc8572" stroke="#dc8572" stroke-width="1.51"/><path d="M-206,1130L-273,1295L-23,1249Z" fill="#d18272" stroke="#d18272" stroke-width="1.51"/><path d="M-258,-212L-65,-11L-38,-160Z" fill="#ffe5da" stroke="#ffe5da" stroke-width="1.51"/><path d="M-258,-212L-246,19L-65,-11Z" fill="#ffe4d8" stroke="#ffe4d8" stroke-width="1.51"/><path d="M-258,885L-93,1057L-65,873Z" fill="#f18d79" stroke="#f18d79" stroke-width="1.51"/><path d="M-268,583L-203,709L-40,586Z" fill="#ffa58c" stroke="#ffa58c" stroke-width="1.51"/><path d="M-99,770L-258,885L-65,873Z" fill="#f9937d" stroke="#f9937d" stroke-width="1.51"/><path d="M-203,709L-258,885L-99,770Z" fill="#fe9882" stroke="#fe9882" stroke-width="1.51"/><path d="M-258,885L-206,1130L-93,1057Z" fill="#e98b78" stroke="#e98b78" stroke-width="1.51"/><path d="M-258,885L-273,1295L-206,1130Z" fill="#e28b79" stroke="#e28b79" stroke-width="1.51"/><path d="M-268,583L-258,885L-203,709Z" fill="#ff9f87" stroke="#ff9f87" stroke-width="1.51"/><path d="M-254,144L-268,583L-222,388Z" fill="#ffbda7" stroke="#ffbda7" stroke-width="1.51"/><path d="M-258,-212L-254,144L-246,19Z" fill="#ffe2d5" stroke="#ffe2d5" stroke-width="1.51"/><path d="M-258,-212L-268,583L-254,144Z" fill="#ffd1bf" stroke="#ffd1bf" stroke-width="1.51"/><path d="M-268,583L-273,1295L-258,885Z" fill="#f4937f" stroke="#f4937f" stroke-width="1.51"/></svg>